<?xml version="1.0" encoding="UTF-8" standalone="no" ?>
<!DOCTYPE svg PUBLIC "-//W3C//DTD SVG 1.1//EN" "http://www.w3.org/Graphics/SVG/1.1/DTD/svg11.dtd">
<svg xmlns="http://www.w3.org/2000/svg" xmlns:xlink="http://www.w3.org/1999/xlink" version="1.1" width="1080" height="1080" viewBox="0 0 1080 1080" xml:space="preserve">
<desc>Created with Fabric.js 5.2.4</desc>
<defs>
</defs>
<g transform="matrix(1 0 0 1 540 540)" id="f4a6d932-19fe-46fe-8b9c-4c35487f0403"  >
<rect style="stroke: none; stroke-width: 1; stroke-dasharray: none; stroke-linecap: butt; stroke-dashoffset: 0; stroke-linejoin: miter; stroke-miterlimit: 4; fill: rgb(255,255,255); fill-rule: nonzero; opacity: 1; visibility: hidden;" vector-effect="non-scaling-stroke"  x="-540" y="-540" rx="0" ry="0" width="1080" height="1080" />
</g>
<g transform="matrix(1 0 0 1 540 540)" id="5df37ac4-7086-44e4-b6bd-92cb732919af"  >
</g>
<g transform="matrix(9.64 0 0 9.64 540 540)"  >
<g style=""   >
		<g transform="matrix(1 0 0 1 -0.08 21.83)"  >
<rect style="stroke: none; stroke-width: 1; stroke-dasharray: none; stroke-linecap: butt; stroke-dashoffset: 0; stroke-linejoin: miter; stroke-miterlimit: 4; fill: rgb(133,133,133); fill-rule: nonzero; opacity: 1;" vector-effect="non-scaling-stroke"  x="-55.791" y="-52.6655" rx="8" ry="8" width="111.582" height="105.331" />
</g>
		<g transform="matrix(1 0 0 1 -0.08 17.68)"  >
<rect style="stroke: none; stroke-width: 1; stroke-dasharray: none; stroke-linecap: butt; stroke-dashoffset: 0; stroke-linejoin: miter; stroke-miterlimit: 4; fill: rgb(214,214,214); fill-rule: nonzero; opacity: 1;" vector-effect="non-scaling-stroke"  x="-55.791" y="-48.5131" rx="8" ry="8" width="111.582" height="97.0262" />
</g>
		<g transform="matrix(1 0 0 1 -14 34.34)"  >
<rect style="stroke: none; stroke-width: 1; stroke-dasharray: none; stroke-linecap: butt; stroke-dashoffset: 0; stroke-linejoin: miter; stroke-miterlimit: 4; fill: rgb(138,102,216); fill-rule: nonzero; opacity: 1;" vector-effect="non-scaling-stroke"  x="-23.9781" y="-17.28495" rx="7.67678" ry="7.67678" width="47.9562" height="34.5699" />
</g>
		<g transform="matrix(1 0 0 1 -0.46 10.49)"  >
<linearGradient id="SVGID_paint0_linear_320_11228_3" gradientUnits="userSpaceOnUse" gradientTransform="matrix(1 0 0 1 -55.54 -85.49)"  x1="15.5293" y1="104.409" x2="94.4027" y2="94.922">
<stop offset="0%" style="stop-color:rgb(0,0,0);stop-opacity: 1"/>
<stop offset="100%" style="stop-color:rgb(0,0,0);stop-opacity: 1"/>
</linearGradient>
<rect style="stroke: none; stroke-width: 1; stroke-dasharray: none; stroke-linecap: butt; stroke-dashoffset: 0; stroke-linejoin: miter; stroke-miterlimit: 4; fill: url(#SVGID_paint0_linear_320_11228_3); fill-rule: nonzero; opacity: 1;" vector-effect="non-scaling-stroke"  x="-40.0074" y="-41.97855" rx="7.67678" ry="7.67678" width="80.0148" height="83.9571" />
</g>
		<g transform="matrix(1 0 0 1 -0.14 43.73)"  >
<path style="stroke: none; stroke-width: 1; stroke-dasharray: none; stroke-linecap: butt; stroke-dashoffset: 0; stroke-linejoin: miter; stroke-miterlimit: 4; fill: rgb(215,215,239); fill-rule: nonzero; opacity: 1;" vector-effect="non-scaling-stroke"  transform=" translate(-55.86, -118.73)" d="M 43.7666 111.996 C 43.7666 110.892 44.662 109.996 45.7666 109.996 L 65.9538 109.996 C 67.0584 109.996 67.9538 110.892 67.9538 111.996 L 67.9538 127.473 L 43.7666 127.473 L 43.7666 111.996 Z" stroke-linecap="round" />
</g>
		<g transform="matrix(1 0 0 1 -0.14 45.27)"  >
<path style="stroke: none; stroke-width: 1; stroke-dasharray: none; stroke-linecap: butt; stroke-dashoffset: 0; stroke-linejoin: miter; stroke-miterlimit: 4; fill: rgb(61,68,70); fill-rule: nonzero; opacity: 1;" vector-effect="non-scaling-stroke"  transform=" translate(-55.86, -120.27)" d="M 46.8545 115.065 C 46.8545 113.961 47.7499 113.065 48.8545 113.065 L 62.8663 113.065 C 63.9708 113.065 64.8663 113.961 64.8663 115.065 L 64.8663 127.473 L 46.8545 127.473 L 46.8545 115.065 Z" stroke-linecap="round" />
</g>
		<g transform="matrix(1 0 0 1 -27.44 25.74)"  >
<rect style="stroke: none; stroke-width: 1; stroke-dasharray: none; stroke-linecap: butt; stroke-dashoffset: 0; stroke-linejoin: miter; stroke-miterlimit: 4; fill: rgb(110,133,141); fill-rule: nonzero; opacity: 1;" vector-effect="non-scaling-stroke"  x="-4.22969" y="-4.145" rx="2" ry="2" width="8.45938" height="8.29" />
</g>
		<g transform="matrix(1 0 0 1 -14.27 25.74)"  >
<rect style="stroke: none; stroke-width: 1; stroke-dasharray: none; stroke-linecap: butt; stroke-dashoffset: 0; stroke-linejoin: miter; stroke-miterlimit: 4; fill: rgb(110,133,141); fill-rule: nonzero; opacity: 1;" vector-effect="non-scaling-stroke"  x="-4.22969" y="-4.145" rx="2" ry="2" width="8.45938" height="8.29" />
</g>
		<g transform="matrix(1 0 0 1 -1.1 25.74)"  >
<rect style="stroke: none; stroke-width: 1; stroke-dasharray: none; stroke-linecap: butt; stroke-dashoffset: 0; stroke-linejoin: miter; stroke-miterlimit: 4; fill: rgb(110,133,141); fill-rule: nonzero; opacity: 1;" vector-effect="non-scaling-stroke"  x="-4.22969" y="-4.145" rx="2" ry="2" width="8.45938" height="8.29" />
</g>
		<g transform="matrix(1 0 0 1 12.06 25.74)"  >
<rect style="stroke: none; stroke-width: 1; stroke-dasharray: none; stroke-linecap: butt; stroke-dashoffset: 0; stroke-linejoin: miter; stroke-miterlimit: 4; fill: rgb(110,133,141); fill-rule: nonzero; opacity: 1;" vector-effect="non-scaling-stroke"  x="-4.22969" y="-4.145" rx="2" ry="2" width="8.45938" height="8.29" />
</g>
		<g transform="matrix(1 0 0 1 25.23 25.74)"  >
<rect style="stroke: none; stroke-width: 1; stroke-dasharray: none; stroke-linecap: butt; stroke-dashoffset: 0; stroke-linejoin: miter; stroke-miterlimit: 4; fill: rgb(110,133,141); fill-rule: nonzero; opacity: 1;" vector-effect="non-scaling-stroke"  x="-4.22969" y="-4.145" rx="2" ry="2" width="8.45938" height="8.29" />
</g>
		<g transform="matrix(1 0 0 1 -27.44 13.85)"  >
<rect style="stroke: none; stroke-width: 1; stroke-dasharray: none; stroke-linecap: butt; stroke-dashoffset: 0; stroke-linejoin: miter; stroke-miterlimit: 4; fill: rgb(110,133,141); fill-rule: nonzero; opacity: 1;" vector-effect="non-scaling-stroke"  x="-4.22969" y="-4.145" rx="2" ry="2" width="8.45938" height="8.29" />
</g>
		<g transform="matrix(1 0 0 1 -14.27 13.85)"  >
<rect style="stroke: none; stroke-width: 1; stroke-dasharray: none; stroke-linecap: butt; stroke-dashoffset: 0; stroke-linejoin: miter; stroke-miterlimit: 4; fill: rgb(110,133,141); fill-rule: nonzero; opacity: 1;" vector-effect="non-scaling-stroke"  x="-4.22969" y="-4.145" rx="2" ry="2" width="8.45938" height="8.29" />
</g>
		<g transform="matrix(1 0 0 1 -1.1 13.85)"  >
<rect style="stroke: none; stroke-width: 1; stroke-dasharray: none; stroke-linecap: butt; stroke-dashoffset: 0; stroke-linejoin: miter; stroke-miterlimit: 4; fill: rgb(110,133,141); fill-rule: nonzero; opacity: 1;" vector-effect="non-scaling-stroke"  x="-4.22969" y="-4.145" rx="2" ry="2" width="8.45938" height="8.29" />
</g>
		<g transform="matrix(1 0 0 1 12.06 13.85)"  >
<rect style="stroke: none; stroke-width: 1; stroke-dasharray: none; stroke-linecap: butt; stroke-dashoffset: 0; stroke-linejoin: miter; stroke-miterlimit: 4; fill: rgb(110,133,141); fill-rule: nonzero; opacity: 1;" vector-effect="non-scaling-stroke"  x="-4.22969" y="-4.145" rx="2" ry="2" width="8.45938" height="8.29" />
</g>
		<g transform="matrix(1 0 0 1 25.23 13.85)"  >
<rect style="stroke: none; stroke-width: 1; stroke-dasharray: none; stroke-linecap: butt; stroke-dashoffset: 0; stroke-linejoin: miter; stroke-miterlimit: 4; fill: rgb(110,133,141); fill-rule: nonzero; opacity: 1;" vector-effect="non-scaling-stroke"  x="-4.22969" y="-4.145" rx="2" ry="2" width="8.45938" height="8.29" />
</g>
		<g transform="matrix(1 0 0 1 -27.44 1.96)"  >
<rect style="stroke: none; stroke-width: 1; stroke-dasharray: none; stroke-linecap: butt; stroke-dashoffset: 0; stroke-linejoin: miter; stroke-miterlimit: 4; fill: rgb(110,133,141); fill-rule: nonzero; opacity: 1;" vector-effect="non-scaling-stroke"  x="-4.22969" y="-4.145" rx="2" ry="2" width="8.45938" height="8.29" />
</g>
		<g transform="matrix(1 0 0 1 -14.27 1.96)"  >
<rect style="stroke: none; stroke-width: 1; stroke-dasharray: none; stroke-linecap: butt; stroke-dashoffset: 0; stroke-linejoin: miter; stroke-miterlimit: 4; fill: rgb(110,133,141); fill-rule: nonzero; opacity: 1;" vector-effect="non-scaling-stroke"  x="-4.22969" y="-4.145" rx="2" ry="2" width="8.45938" height="8.29" />
</g>
		<g transform="matrix(1 0 0 1 -1.1 1.96)"  >
<rect style="stroke: none; stroke-width: 1; stroke-dasharray: none; stroke-linecap: butt; stroke-dashoffset: 0; stroke-linejoin: miter; stroke-miterlimit: 4; fill: rgb(110,133,141); fill-rule: nonzero; opacity: 1;" vector-effect="non-scaling-stroke"  x="-4.22969" y="-4.145" rx="2" ry="2" width="8.45938" height="8.29" />
</g>
		<g transform="matrix(1 0 0 1 12.06 1.96)"  >
<rect style="stroke: none; stroke-width: 1; stroke-dasharray: none; stroke-linecap: butt; stroke-dashoffset: 0; stroke-linejoin: miter; stroke-miterlimit: 4; fill: rgb(110,133,141); fill-rule: nonzero; opacity: 1;" vector-effect="non-scaling-stroke"  x="-4.22969" y="-4.145" rx="2" ry="2" width="8.45938" height="8.29" />
</g>
		<g transform="matrix(1 0 0 1 25.23 1.96)"  >
<rect style="stroke: none; stroke-width: 1; stroke-dasharray: none; stroke-linecap: butt; stroke-dashoffset: 0; stroke-linejoin: miter; stroke-miterlimit: 4; fill: rgb(110,133,141); fill-rule: nonzero; opacity: 1;" vector-effect="non-scaling-stroke"  x="-4.22969" y="-4.145" rx="2" ry="2" width="8.45938" height="8.29" />
</g>
		<g transform="matrix(1 0 0 1 -0.46 -32.33)"  >
<rect style="stroke: none; stroke-width: 1; stroke-dasharray: none; stroke-linecap: butt; stroke-dashoffset: 0; stroke-linejoin: miter; stroke-miterlimit: 4; fill: rgb(146,172,181); fill-rule: nonzero; opacity: 1;" vector-effect="non-scaling-stroke"  x="-40.00725" y="-23.2716" rx="7.67678" ry="7.67678" width="80.0145" height="46.5432" />
</g>
		<g transform="matrix(1 0 0 1 -0.38 -35.38)"  >
<linearGradient id="SVGID_paint1_linear_320_11228_4" gradientUnits="userSpaceOnUse" gradientTransform="matrix(1 0 0 1 -55.62 -39.62)"  x1="20.957" y1="48.7305" x2="87.1849" y2="34.4002">
<stop offset="0%" style="stop-color:rgb(0,0,0);stop-opacity: 1"/>
<stop offset="100%" style="stop-color:rgb(0,0,0);stop-opacity: 1"/>
</linearGradient>
<rect style="stroke: none; stroke-width: 1; stroke-dasharray: none; stroke-linecap: butt; stroke-dashoffset: 0; stroke-linejoin: miter; stroke-miterlimit: 4; fill: url(#SVGID_paint1_linear_320_11228_4); fill-rule: nonzero; opacity: 1;" vector-effect="non-scaling-stroke"  x="-34.66445" y="-20.21885" rx="7.67678" ry="7.67678" width="69.3289" height="40.4377" />
</g>
		<g transform="matrix(1 0 0 1 -0.38 -41.29)"  >
<rect style="stroke: rgb(146,172,181); stroke-width: 1; stroke-dasharray: none; stroke-linecap: butt; stroke-dashoffset: 0; stroke-linejoin: miter; stroke-miterlimit: 4; fill: none; fill-rule: nonzero; opacity: 1;" vector-effect="non-scaling-stroke"  x="-34.16445" y="-14.651" rx="7.17678" ry="7.17678" width="68.3289" height="29.302" />
</g>
		<g transform="matrix(1 0 0 1 -0.38 -55.6)"  >
<rect style="stroke: none; stroke-width: 1; stroke-dasharray: none; stroke-linecap: butt; stroke-dashoffset: 0; stroke-linejoin: miter; stroke-miterlimit: 4; fill: rgb(146,172,181); fill-rule: nonzero; opacity: 1;" vector-effect="non-scaling-stroke"  x="-34.66435" y="-18.64145" rx="7.67678" ry="7.67678" width="69.3287" height="37.2829" />
</g>
		<g transform="matrix(1 0 0 1 -0.38 -55.6)"  >
<rect style="stroke: none; stroke-width: 1; stroke-dasharray: none; stroke-linecap: butt; stroke-dashoffset: 0; stroke-linejoin: miter; stroke-miterlimit: 4; fill: rgb(89,110,117); fill-rule: nonzero; opacity: 1;" vector-effect="non-scaling-stroke"  x="-26.059" y="-11.73275" rx="7.67678" ry="7.67678" width="52.118" height="23.4655" />
</g>
</g>
</g>
</svg>