<?xml version="1.0" encoding="UTF-8" standalone="no" ?>
<!DOCTYPE svg PUBLIC "-//W3C//DTD SVG 1.1//EN" "http://www.w3.org/Graphics/SVG/1.1/DTD/svg11.dtd">
<svg xmlns="http://www.w3.org/2000/svg" xmlns:xlink="http://www.w3.org/1999/xlink" version="1.1" width="1080" height="1080" viewBox="0 0 1080 1080" xml:space="preserve">
<desc>Created with Fabric.js 5.2.4</desc>
<defs>
</defs>
<rect x="0" y="0" width="100%" height="100%" fill="transparent"></rect>
<g transform="matrix(1 0 0 1 540 540)" id="f4a6d932-19fe-46fe-8b9c-4c35487f0403"  >
<rect style="stroke: none; stroke-width: 1; stroke-dasharray: none; stroke-linecap: butt; stroke-dashoffset: 0; stroke-linejoin: miter; stroke-miterlimit: 4; fill: rgb(255,255,255); fill-rule: nonzero; opacity: 1; visibility: hidden;" vector-effect="non-scaling-stroke"  x="-540" y="-540" rx="0" ry="0" width="1080" height="1080" />
</g>
<g transform="matrix(1 0 0 1 540 540)" id="5df37ac4-7086-44e4-b6bd-92cb732919af"  >
</g>
<g transform="matrix(9.64 0 0 9.64 540 540)"  >
<g style=""   >
		<g transform="matrix(1 0 0 1 -0.08 21.83)"  >
<rect style="stroke: none; stroke-width: 1; stroke-dasharray: none; stroke-linecap: butt; stroke-dashoffset: 0; stroke-linejoin: miter; stroke-miterlimit: 4; fill: rgb(133,133,133); fill-rule: nonzero; opacity: 1;" vector-effect="non-scaling-stroke"  x="-55.791" y="-52.6655" rx="8" ry="8" width="111.582" height="105.331" />
</g>
		<g transform="matrix(1 0 0 1 -0.08 17.68)"  >
<rect style="stroke: none; stroke-width: 1; stroke-dasharray: none; stroke-linecap: butt; stroke-dashoffset: 0; stroke-linejoin: miter; stroke-miterlimit: 4; fill: rgb(214,214,214); fill-rule: nonzero; opacity: 1;" vector-effect="non-scaling-stroke"  x="-55.791" y="-48.5131" rx="8" ry="8" width="111.582" height="97.0262" />
</g>
		<g transform="matrix(1 0 0 1 -14 34.34)"  >
<rect style="stroke: none; stroke-width: 1; stroke-dasharray: none; stroke-linecap: butt; stroke-dashoffset: 0; stroke-linejoin: miter; stroke-miterlimit: 4; fill: rgb(138,102,216); fill-rule: nonzero; opacity: 1;" vector-effect="non-scaling-stroke"  x="-23.9781" y="-17.28495" rx="7.67678" ry="7.67678" width="47.9562" height="34.5699" />
</g>
		<g transform="matrix(1 0 0 1 -0.46 10.49)"  >
<linearGradient id="SVGID_paint0_linear_320_11228_3" gradientUnits="userSpaceOnUse" gradientTransform="matrix(1 0 0 1 -55.54 -85.49)"  x1="15.5293" y1="104.409" x2="94.4027" y2="94.922">
<stop offset="0%" style="stop-color:rgb(0,0,0);stop-opacity: 1"/>
<stop offset="100%" style="stop-color:rgb(0,0,0);stop-opacity: 1"/>
</linearGradient>
<rect style="stroke: none; stroke-width: 1; stroke-dasharray: none; stroke-linecap: butt; stroke-dashoffset: 0; stroke-linejoin: miter; stroke-miterlimit: 4; fill: url(#SVGID_paint0_linear_320_11228_3); fill-rule: nonzero; opacity: 1;" vector-effect="non-scaling-stroke"  x="-40.0074" y="-41.97855" rx="7.67678" ry="7.67678" width="80.0148" height="83.9571" />
</g>
		<g transform="matrix(1 0 0 1 -0.14 43.73)"  >
<path style="stroke: none; stroke-width: 1; stroke-dasharray: none; stroke-linecap: butt; stroke-dashoffset: 0; stroke-linejoin: miter; stroke-miterlimit: 4; fill: rgb(215,215,239); fill-rule: nonzero; opacity: 1;" vector-effect="non-scaling-stroke"  transform=" translate(-55.86, -118.73)" d="M 43.7666 111.996 C 43.7666 110.892 44.662 109.996 45.7666 109.996 L 65.9538 109.996 C 67.0584 109.996 67.9538 110.892 67.9538 111.996 L 67.9538 127.473 L 43.7666 127.473 L 43.7666 111.996 Z" stroke-linecap="round" />
</g>
		<g transform="matrix(1 0 0 1 -0.14 45.27)"  >
<path style="stroke: none; stroke-width: 1; stroke-dasharray: none; stroke-linecap: butt; stroke-dashoffset: 0; stroke-linejoin: miter; stroke-miterlimit: 4; fill: rgb(61,68,70); fill-rule: nonzero; opacity: 1;" vector-effect="non-scaling-stroke"  transform=" translate(-55.86, -120.27)" d="M 46.8545 115.065 C 46.8545 113.961 47.7499 113.065 48.8545 113.065 L 62.8663 113.065 C 63.9708 113.065 64.8663 113.961 64.8663 115.065 L 64.8663 127.473 L 46.8545 127.473 L 46.8545 115.065 Z" stroke-linecap="round" />
</g>
		<g transform="matrix(1 0 0 1 -27.44 25.74)"  >
<rect style="stroke: none; stroke-width: 1; stroke-dasharray: none; stroke-linecap: butt; stroke-dashoffset: 0; stroke-linejoin: miter; stroke-miterlimit: 4; fill: rgb(110,133,141); fill-rule: nonzero; opacity: 1;" vector-effect="non-scaling-stroke"  x="-4.22969" y="-4.145" rx="2" ry="2" width="8.45938" height="8.29" />
</g>
		<g transform="matrix(1 0 0 1 -14.27 25.74)"  >
<rect style="stroke: none; stroke-width: 1; stroke-dasharray: none; stroke-linecap: butt; stroke-dashoffset: 0; stroke-linejoin: miter; stroke-miterlimit: 4; fill: rgb(110,133,141); fill-rule: nonzero; opacity: 1;" vector-effect="non-scaling-stroke"  x="-4.22969" y="-4.145" rx="2" ry="2" width="8.45938" height="8.29" />
</g>
		<g transform="matrix(1 0 0 1 -1.1 25.74)"  >
<rect style="stroke: none; stroke-width: 1; stroke-dasharray: none; stroke-linecap: butt; stroke-dashoffset: 0; stroke-linejoin: miter; stroke-miterlimit: 4; fill: rgb(110,133,141); fill-rule: nonzero; opacity: 1;" vector-effect="non-scaling-stroke"  x="-4.22969" y="-4.145" rx="2" ry="2" width="8.45938" height="8.29" />
</g>
		<g transform="matrix(1 0 0 1 12.06 25.74)"  >
<rect style="stroke: none; stroke-width: 1; stroke-dasharray: none; stroke-linecap: butt; stroke-dashoffset: 0; stroke-linejoin: miter; stroke-miterlimit: 4; fill: rgb(110,133,141); fill-rule: nonzero; opacity: 1;" vector-effect="non-scaling-stroke"  x="-4.22969" y="-4.145" rx="2" ry="2" width="8.45938" height="8.29" />
</g>
		<g transform="matrix(1 0 0 1 25.23 25.74)"  >
<rect style="stroke: none; stroke-width: 1; stroke-dasharray: none; stroke-linecap: butt; stroke-dashoffset: 0; stroke-linejoin: miter; stroke-miterlimit: 4; fill: rgb(110,133,141); fill-rule: nonzero; opacity: 1;" vector-effect="non-scaling-stroke"  x="-4.22969" y="-4.145" rx="2" ry="2" width="8.45938" height="8.29" />
</g>
		<g transform="matrix(1 0 0 1 -27.44 13.85)"  >
<rect style="stroke: none; stroke-width: 1; stroke-dasharray: none; stroke-linecap: butt; stroke-dashoffset: 0; stroke-linejoin: miter; stroke-miterlimit: 4; fill: rgb(110,133,141); fill-rule: nonzero; opacity: 1;" vector-effect="non-scaling-stroke"  x="-4.22969" y="-4.145" rx="2" ry="2" width="8.45938" height="8.29" />
</g>
		<g transform="matrix(1 0 0 1 -14.27 13.85)"  >
<rect style="stroke: none; stroke-width: 1; stroke-dasharray: none; stroke-linecap: butt; stroke-dashoffset: 0; stroke-linejoin: miter; stroke-miterlimit: 4; fill: rgb(110,133,141); fill-rule: nonzero; opacity: 1;" vector-effect="non-scaling-stroke"  x="-4.22969" y="-4.145" rx="2" ry="2" width="8.45938" height="8.29" />
</g>
		<g transform="matrix(1 0 0 1 -1.1 13.85)"  >
<rect style="stroke: none; stroke-width: 1; stroke-dasharray: none; stroke-linecap: butt; stroke-dashoffset: 0; stroke-linejoin: miter; stroke-miterlimit: 4; fill: rgb(110,133,141); fill-rule: nonzero; opacity: 1;" vector-effect="non-scaling-stroke"  x="-4.22969" y="-4.145" rx="2" ry="2" width="8.45938" height="8.29" />
</g>
		<g transform="matrix(1 0 0 1 12.06 13.85)"  >
<rect style="stroke: none; stroke-width: 1; stroke-dasharray: none; stroke-linecap: butt; stroke-dashoffset: 0; stroke-linejoin: miter; stroke-miterlimit: 4; fill: rgb(110,133,141); fill-rule: nonzero; opacity: 1;" vector-effect="non-scaling-stroke"  x="-4.22969" y="-4.145" rx="2" ry="2" width="8.45938" height="8.29" />
</g>
		<g transform="matrix(1 0 0 1 25.23 13.85)"  >
<rect style="stroke: none; stroke-width: 1; stroke-dasharray: none; stroke-linecap: butt; stroke-dashoffset: 0; stroke-linejoin: miter; stroke-miterlimit: 4; fill: rgb(110,133,141); fill-rule: nonzero; opacity: 1;" vector-effect="non-scaling-stroke"  x="-4.22969" y="-4.145" rx="2" ry="2" width="8.45938" height="8.29" />
</g>
		<g transform="matrix(1 0 0 1 -27.44 1.96)"  >
<rect style="stroke: none; stroke-width: 1; stroke-dasharray: none; stroke-linecap: butt; stroke-dashoffset: 0; stroke-linejoin: miter; stroke-miterlimit: 4; fill: rgb(110,133,141); fill-rule: nonzero; opacity: 1;" vector-effect="non-scaling-stroke"  x="-4.22969" y="-4.145" rx="2" ry="2" width="8.45938" height="8.29" />
</g>
		<g transform="matrix(1 0 0 1 -14.27 1.96)"  >
<rect style="stroke: none; stroke-width: 1; stroke-dasharray: none; stroke-linecap: butt; stroke-dashoffset: 0; stroke-linejoin: miter; stroke-miterlimit: 4; fill: rgb(110,133,141); fill-rule: nonzero; opacity: 1;" vector-effect="non-scaling-stroke"  x="-4.22969" y="-4.145" rx="2" ry="2" width="8.45938" height="8.29" />
</g>
		<g transform="matrix(1 0 0 1 -1.1 1.96)"  >
<rect style="stroke: none; stroke-width: 1; stroke-dasharray: none; stroke-linecap: butt; stroke-dashoffset: 0; stroke-linejoin: miter; stroke-miterlimit: 4; fill: rgb(110,133,141); fill-rule: nonzero; opacity: 1;" vector-effect="non-scaling-stroke"  x="-4.22969" y="-4.145" rx="2" ry="2" width="8.45938" height="8.29" />
</g>
		<g transform="matrix(1 0 0 1 12.06 1.96)"  >
<rect style="stroke: none; stroke-width: 1; stroke-dasharray: none; stroke-linecap: butt; stroke-dashoffset: 0; stroke-linejoin: miter; stroke-miterlimit: 4; fill: rgb(110,133,141); fill-rule: nonzero; opacity: 1;" vector-effect="non-scaling-stroke"  x="-4.22969" y="-4.145" rx="2" ry="2" width="8.45938" height="8.29" />
</g>
		<g transform="matrix(1 0 0 1 25.23 1.96)"  >
<rect style="stroke: none; stroke-width: 1; stroke-dasharray: none; stroke-linecap: butt; stroke-dashoffset: 0; stroke-linejoin: miter; stroke-miterlimit: 4; fill: rgb(110,133,141); fill-rule: nonzero; opacity: 1;" vector-effect="non-scaling-stroke"  x="-4.22969" y="-4.145" rx="2" ry="2" width="8.45938" height="8.29" />
</g>
		<g transform="matrix(1 0 0 1 -0.46 -32.33)"  >
<rect style="stroke: none; stroke-width: 1; stroke-dasharray: none; stroke-linecap: butt; stroke-dashoffset: 0; stroke-linejoin: miter; stroke-miterlimit: 4; fill: rgb(146,172,181); fill-rule: nonzero; opacity: 1;" vector-effect="non-scaling-stroke"  x="-40.00725" y="-23.2716" rx="7.67678" ry="7.67678" width="80.0145" height="46.5432" />
</g>
		<g transform="matrix(1 0 0 1 -0.38 -35.38)"  >
<linearGradient id="SVGID_paint1_linear_320_11228_4" gradientUnits="userSpaceOnUse" gradientTransform="matrix(1 0 0 1 -55.62 -39.62)"  x1="20.957" y1="48.7305" x2="87.1849" y2="34.4002">
<stop offset="0%" style="stop-color:rgb(0,0,0);stop-opacity: 1"/>
<stop offset="100%" style="stop-color:rgb(0,0,0);stop-opacity: 1"/>
</linearGradient>
<rect style="stroke: none; stroke-width: 1; stroke-dasharray: none; stroke-linecap: butt; stroke-dashoffset: 0; stroke-linejoin: miter; stroke-miterlimit: 4; fill: url(#SVGID_paint1_linear_320_11228_4); fill-rule: nonzero; opacity: 1;" vector-effect="non-scaling-stroke"  x="-34.66445" y="-20.21885" rx="7.67678" ry="7.67678" width="69.3289" height="40.4377" />
</g>
		<g transform="matrix(1 0 0 1 -0.38 -41.29)"  >
<rect style="stroke: rgb(146,172,181); stroke-width: 1; stroke-dasharray: none; stroke-linecap: butt; stroke-dashoffset: 0; stroke-linejoin: miter; stroke-miterlimit: 4; fill: none; fill-rule: nonzero; opacity: 1;" vector-effect="non-scaling-stroke"  x="-34.16445" y="-14.651" rx="7.17678" ry="7.17678" width="68.3289" height="29.302" />
</g>
		<g transform="matrix(1 0 0 1 -0.38 -55.6)"  >
<rect style="stroke: none; stroke-width: 1; stroke-dasharray: none; stroke-linecap: butt; stroke-dashoffset: 0; stroke-linejoin: miter; stroke-miterlimit: 4; fill: rgb(146,172,181); fill-rule: nonzero; opacity: 1;" vector-effect="non-scaling-stroke"  x="-34.66435" y="-18.64145" rx="7.67678" ry="7.67678" width="69.3287" height="37.2829" />
</g>
		<g transform="matrix(1 0 0 1 -0.38 -55.6)"  >
<rect style="stroke: none; stroke-width: 1; stroke-dasharray: none; stroke-linecap: butt; stroke-dashoffset: 0; stroke-linejoin: miter; stroke-miterlimit: 4; fill: rgb(89,110,117); fill-rule: nonzero; opacity: 1;" vector-effect="non-scaling-stroke"  x="-26.059" y="-11.73275" rx="7.67678" ry="7.67678" width="52.118" height="23.4655" />
</g>
</g>
</g>
<g transform="matrix(19.29 0 0 19.29 540 540)"  >
<g style=""   >
		<g transform="matrix(1 0 0 1 -0.33 5.54)"  >
<rect style="stroke: none; stroke-width: 1; stroke-dasharray: none; stroke-linecap: butt; stroke-dashoffset: 0; stroke-linejoin: miter; stroke-miterlimit: 4; fill: rgb(249,122,145); fill-rule: nonzero; opacity: 1;" vector-effect="non-scaling-stroke"  x="-27.5952" y="-23.23215" rx="8" ry="8" width="55.1904" height="46.4643" />
</g>
		<g transform="matrix(1 0 0 1 -0.33 3.71)"  >
<rect style="stroke: rgb(249,122,145); stroke-width: 1; stroke-dasharray: none; stroke-linecap: butt; stroke-dashoffset: 0; stroke-linejoin: miter; stroke-miterlimit: 4; fill: rgb(231,235,250); fill-rule: nonzero; opacity: 1;" vector-effect="non-scaling-stroke"  x="-27.0952" y="-20.9004" rx="7.5" ry="7.5" width="54.1904" height="41.8008" />
</g>
		<g transform="matrix(1 0 0 1 -0.48 0.34)"  >
<linearGradient id="SVGID_paint0_linear_320_10995_6" gradientUnits="userSpaceOnUse" gradientTransform="matrix(1 0 0 1 -27.52 -29.34)"  x1="8.5293" y1="37.4561" x2="45.8545" y2="32.4918">
<stop offset="0%" style="stop-color:rgb(0,0,0);stop-opacity: 1"/>
<stop offset="100%" style="stop-color:rgb(0,0,0);stop-opacity: 1"/>
</linearGradient>
<rect style="stroke: none; stroke-width: 1; stroke-dasharray: none; stroke-linecap: butt; stroke-dashoffset: 0; stroke-linejoin: miter; stroke-miterlimit: 4; fill: url(#SVGID_paint0_linear_320_10995_6); fill-rule: nonzero; opacity: 1;" vector-effect="non-scaling-stroke"  x="-18.99275" y="-18.0228" rx="7.67678" ry="7.67678" width="37.9855" height="36.0456" />
</g>
		<g transform="matrix(1 0 0 1 -1 6.58)"  >
<rect style="stroke: none; stroke-width: 1; stroke-dasharray: none; stroke-linecap: butt; stroke-dashoffset: 0; stroke-linejoin: miter; stroke-miterlimit: 4; fill: rgb(216,111,174); fill-rule: nonzero; opacity: 1;" vector-effect="non-scaling-stroke"  x="-7.71635" y="-1.503685" rx="0" ry="0" width="15.4327" height="3.00737" />
</g>
		<g transform="matrix(1 0 0 1 -1 -0.88)"  >
<rect style="stroke: none; stroke-width: 1; stroke-dasharray: none; stroke-linecap: butt; stroke-dashoffset: 0; stroke-linejoin: miter; stroke-miterlimit: 4; fill: rgb(216,111,174); fill-rule: nonzero; opacity: 1;" vector-effect="non-scaling-stroke"  x="-7.71635" y="-1.503685" rx="0" ry="0" width="15.4327" height="3.00737" />
</g>
		<g transform="matrix(1 0 0 1 -0.48 -2.9)"  >
<rect style="stroke: rgb(249,122,213); stroke-width: 1; stroke-dasharray: none; stroke-linecap: butt; stroke-dashoffset: 0; stroke-linejoin: miter; stroke-miterlimit: 4; fill: none; fill-rule: nonzero; opacity: 1;" vector-effect="non-scaling-stroke"  x="-18.49275" y="-13.08525" rx="7.17678" ry="7.17678" width="36.9855" height="26.1705" />
</g>
		<g transform="matrix(1 0 0 1 -0.48 -7.76)"  >
<rect style="stroke: rgb(249,122,213); stroke-width: 1; stroke-dasharray: none; stroke-linecap: butt; stroke-dashoffset: 0; stroke-linejoin: miter; stroke-miterlimit: 4; fill: none; fill-rule: nonzero; opacity: 1;" vector-effect="non-scaling-stroke"  x="-18.49275" y="-10.42655" rx="7.17678" ry="7.17678" width="36.9855" height="20.8531" />
</g>
		<g transform="matrix(1 0 0 1 -0.48 -16.22)"  >
<rect style="stroke: none; stroke-width: 1; stroke-dasharray: none; stroke-linecap: butt; stroke-dashoffset: 0; stroke-linejoin: miter; stroke-miterlimit: 4; fill: rgb(249,122,213); fill-rule: nonzero; opacity: 1;" vector-effect="non-scaling-stroke"  x="-18.9927" y="-12.08605" rx="7.67678" ry="7.67678" width="37.9854" height="24.1721" />
</g>
		<g transform="matrix(1 0 0 1 -0.48 -16.22)"  >
<rect style="stroke: none; stroke-width: 1; stroke-dasharray: none; stroke-linecap: butt; stroke-dashoffset: 0; stroke-linejoin: miter; stroke-miterlimit: 4; fill: rgb(255,186,248); fill-rule: nonzero; opacity: 1;" vector-effect="non-scaling-stroke"  x="-14.2778" y="-8.125" rx="5" ry="5" width="28.5556" height="16.25" />
</g>
		<g transform="matrix(1 0 0 1 -0.33 15.34)"  >
<path style="stroke: none; stroke-width: 1; stroke-dasharray: none; stroke-linecap: butt; stroke-dashoffset: 0; stroke-linejoin: miter; stroke-miterlimit: 4; fill: rgb(215,215,239); fill-rule: nonzero; opacity: 1;" vector-effect="non-scaling-stroke"  transform=" translate(-27.67, -44.34)" d="M 23.3779 43.3281 C 23.3779 42.2236 24.2734 41.3281 25.3779 41.3281 L 29.9618 41.3281 C 31.0664 41.3281 31.9618 42.2236 31.9618 43.3281 L 31.9618 47.3578 L 23.3779 47.3578 L 23.3779 43.3281 Z" stroke-linecap="round" />
</g>
		<g transform="matrix(1 0 0 1 -0.33 15.87)"  >
<path style="stroke: none; stroke-width: 1; stroke-dasharray: none; stroke-linecap: butt; stroke-dashoffset: 0; stroke-linejoin: miter; stroke-miterlimit: 4; fill: rgb(59,59,129); fill-rule: nonzero; opacity: 1;" vector-effect="non-scaling-stroke"  transform=" translate(-27.67, -44.87)" d="M 24.4736 44.3872 C 24.4736 43.2826 25.3691 42.3872 26.4736 42.3872 L 28.8659 42.3872 C 29.9705 42.3872 30.8659 43.2826 30.8659 44.3872 L 30.8659 47.3579 L 24.4736 47.3579 L 24.4736 44.3872 Z" stroke-linecap="round" />
</g>
		<g transform="matrix(1 0 0 1 -14 17.03)"  >
<ellipse style="stroke: none; stroke-width: 1; stroke-dasharray: none; stroke-linecap: butt; stroke-dashoffset: 0; stroke-linejoin: miter; stroke-miterlimit: 4; fill: rgb(79,168,109); fill-rule: nonzero; opacity: 1;" vector-effect="non-scaling-stroke"  cx="0" cy="0" rx="3.16233" ry="2.92207" />
</g>
		<g transform="matrix(1 0 0 1 -11.63 20.38)"  >
<path style="stroke: none; stroke-width: 1; stroke-dasharray: none; stroke-linecap: butt; stroke-dashoffset: 0; stroke-linejoin: miter; stroke-miterlimit: 4; fill: rgb(50,138,80); fill-rule: nonzero; opacity: 1;" vector-effect="non-scaling-stroke"  transform=" translate(-16.37, -49.38)" d="M 17.3762 48.5658 C 16.648 47.7849 15.1578 49.4523 14.4522 50.3645 C 15.8452 50.5237 17.2953 50.1037 18.2055 50.1792 C 18.6349 49.3714 17.2464 49.2878 16.4985 49.3469 C 16.874 49.1682 17.2401 48.7517 17.3762 48.5658 Z" stroke-linecap="round" />
</g>
		<g transform="matrix(1 0 0 1 -15.91 20)"  >
<path style="stroke: none; stroke-width: 1; stroke-dasharray: none; stroke-linecap: butt; stroke-dashoffset: 0; stroke-linejoin: miter; stroke-miterlimit: 4; fill: rgb(50,138,80); fill-rule: nonzero; opacity: 1;" vector-effect="non-scaling-stroke"  transform=" translate(-12.09, -49)" d="M 11.6845 47.6591 C 12.6465 47.1958 13.5398 49.2921 13.8662 50.3982 C 10.5127 50.5091 11.2017 49.1214 10.3261 48.8614 C 10.2192 47.9529 11.4584 48.6681 12.1338 48.9947 C 11.8488 48.6918 11.7439 47.8817 11.6845 47.6591 Z" stroke-linecap="round" />
</g>
		<g transform="matrix(1 0 0 1 -14.07 18.68)"  >
<path style="stroke: none; stroke-width: 1; stroke-dasharray: none; stroke-linecap: butt; stroke-dashoffset: 0; stroke-linejoin: miter; stroke-miterlimit: 4; fill: rgb(50,138,80); fill-rule: nonzero; opacity: 1;" vector-effect="non-scaling-stroke"  transform=" translate(-13.93, -47.68)" d="M 14.6678 46.9715 C 15.4349 47.7142 14.3388 48.6271 13.4136 49.3156 C 12.5598 48.2486 13.1287 47.0237 13.0702 46.1122 C 13.8858 45.698 13.9435 47.0878 13.8704 47.8345 C 14.0561 47.4624 14.4794 47.1041 14.6678 46.9715 Z" stroke-linecap="round" />
</g>
		<g transform="matrix(1 0 0 1 -12.5 19.34)"  >
<path style="stroke: none; stroke-width: 1; stroke-dasharray: none; stroke-linecap: butt; stroke-dashoffset: 0; stroke-linejoin: miter; stroke-miterlimit: 4; fill: rgb(50,138,80); fill-rule: nonzero; opacity: 1;" vector-effect="non-scaling-stroke"  transform=" translate(-15.5, -48.34)" d="M 16.2371 47.6322 C 17.0042 48.3749 15.9082 49.2878 14.983 49.9762 C 14.1291 48.9093 14.698 47.6843 14.6395 46.7728 C 15.4551 46.3586 15.5128 47.7484 15.4397 48.4951 C 15.6254 48.123 16.0487 47.7648 16.2371 47.6322 Z" stroke-linecap="round" />
</g>
		<g transform="matrix(1 0 0 1 -13.78 20.39)"  >
<rect style="stroke: none; stroke-width: 1; stroke-dasharray: none; stroke-linecap: butt; stroke-dashoffset: 0; stroke-linejoin: miter; stroke-miterlimit: 4; fill: rgb(50,138,80); fill-rule: nonzero; opacity: 1;" vector-effect="non-scaling-stroke"  x="-1.057255" y="-1.01536" rx="0" ry="0" width="2.11451" height="2.03072" />
</g>
		<g transform="matrix(1 0 0 1 15.09 17.03)"  >
<ellipse style="stroke: none; stroke-width: 1; stroke-dasharray: none; stroke-linecap: butt; stroke-dashoffset: 0; stroke-linejoin: miter; stroke-miterlimit: 4; fill: rgb(79,168,109); fill-rule: nonzero; opacity: 1;" vector-effect="non-scaling-stroke"  cx="0" cy="0" rx="3.16233" ry="2.92207" />
</g>
		<g transform="matrix(1 0 0 1 17.46 20.33)"  >
<path style="stroke: none; stroke-width: 1; stroke-dasharray: none; stroke-linecap: butt; stroke-dashoffset: 0; stroke-linejoin: miter; stroke-miterlimit: 4; fill: rgb(50,138,80); fill-rule: nonzero; opacity: 1;" vector-effect="non-scaling-stroke"  transform=" translate(-45.46, -49.33)" d="M 46.4709 48.516 C 45.7427 47.7351 44.2526 49.4025 43.5469 50.3146 C 44.9399 50.4739 46.39 50.0539 47.3003 50.1294 C 47.7296 49.3216 46.3411 49.238 45.5932 49.2971 C 45.9687 49.1184 46.3348 48.7019 46.4709 48.516 Z" stroke-linecap="round" />
</g>
		<g transform="matrix(1 0 0 1 13.19 19.95)"  >
<path style="stroke: none; stroke-width: 1; stroke-dasharray: none; stroke-linecap: butt; stroke-dashoffset: 0; stroke-linejoin: miter; stroke-miterlimit: 4; fill: rgb(50,138,80); fill-rule: nonzero; opacity: 1;" vector-effect="non-scaling-stroke"  transform=" translate(-41.19, -48.95)" d="M 40.7792 47.6093 C 41.7413 47.146 42.6345 49.2423 42.9609 50.3484 C 39.6075 50.4593 40.2964 49.0716 39.4208 48.8116 C 39.314 47.9031 40.5531 48.6183 41.2285 48.9449 C 40.9435 48.642 40.8386 47.8319 40.7792 47.6093 Z" stroke-linecap="round" />
</g>
		<g transform="matrix(1 0 0 1 15.03 18.63)"  >
<path style="stroke: none; stroke-width: 1; stroke-dasharray: none; stroke-linecap: butt; stroke-dashoffset: 0; stroke-linejoin: miter; stroke-miterlimit: 4; fill: rgb(50,138,80); fill-rule: nonzero; opacity: 1;" vector-effect="non-scaling-stroke"  transform=" translate(-43.03, -47.63)" d="M 43.7625 46.9217 C 44.5296 47.6644 43.4336 48.5773 42.5084 49.2658 C 41.6545 48.1988 42.2234 46.9739 42.1649 46.0624 C 42.9805 45.6482 43.0382 47.038 42.9651 47.7847 C 43.1508 47.4126 43.5741 47.0543 43.7625 46.9217 Z" stroke-linecap="round" />
</g>
		<g transform="matrix(1 0 0 1 16.6 19.29)"  >
<path style="stroke: none; stroke-width: 1; stroke-dasharray: none; stroke-linecap: butt; stroke-dashoffset: 0; stroke-linejoin: miter; stroke-miterlimit: 4; fill: rgb(50,138,80); fill-rule: nonzero; opacity: 1;" vector-effect="non-scaling-stroke"  transform=" translate(-44.6, -48.29)" d="M 45.3318 47.5823 C 46.099 48.3251 45.0029 49.238 44.0777 49.9264 C 43.2238 48.8595 43.7927 47.6345 43.7342 46.723 C 44.5499 46.3088 44.6076 47.6986 44.5345 48.4453 C 44.7202 48.0732 45.1434 47.715 45.3318 47.5823 Z" stroke-linecap="round" />
</g>
		<g transform="matrix(1 0 0 1 15.31 20.34)"  >
<rect style="stroke: none; stroke-width: 1; stroke-dasharray: none; stroke-linecap: butt; stroke-dashoffset: 0; stroke-linejoin: miter; stroke-miterlimit: 4; fill: rgb(50,138,80); fill-rule: nonzero; opacity: 1;" vector-effect="non-scaling-stroke"  x="-1.057255" y="-1.01536" rx="0" ry="0" width="2.11451" height="2.03072" />
</g>
</g>
</g>
<g transform="matrix(19.29 0 0 19.29 540 540)"  >
<g style=""   >
		<g transform="matrix(1 0 0 1 0.11 5.5)"  >
<rect style="stroke: none; stroke-width: 1; stroke-dasharray: none; stroke-linecap: butt; stroke-dashoffset: 0; stroke-linejoin: miter; stroke-miterlimit: 4; fill: rgb(143,153,240); fill-rule: nonzero; opacity: 1;" vector-effect="non-scaling-stroke"  x="-27.595" y="-23.232" rx="8" ry="8" width="55.19" height="46.464" />
</g>
		<g transform="matrix(1 0 0 1 0.11 3.67)"  >
<rect style="stroke: rgb(169,174,217); stroke-width: 1; stroke-dasharray: none; stroke-linecap: butt; stroke-dashoffset: 0; stroke-linejoin: miter; stroke-miterlimit: 4; fill: rgb(231,235,250); fill-rule: nonzero; opacity: 1;" vector-effect="non-scaling-stroke"  x="-27.095" y="-20.9005" rx="7.5" ry="7.5" width="54.19" height="41.801" />
</g>
		<g transform="matrix(1 0 0 1 -0.04 0.29)"  >
<linearGradient id="SVGID_a_8" gradientUnits="userSpaceOnUse" gradientTransform="matrix(1 0 0 1 -27.96 -29.29)"  x1="8.972" y1="37.412" x2="46.297" y2="32.448">
<stop offset="0%" style="stop-color:rgb(0,0,0);stop-opacity: 1"/>
<stop offset="100%" style="stop-color:rgb(0,0,0);stop-opacity: 1"/>
</linearGradient>
<rect style="stroke: none; stroke-width: 1; stroke-dasharray: none; stroke-linecap: butt; stroke-dashoffset: 0; stroke-linejoin: miter; stroke-miterlimit: 4; fill: url(#SVGID_a_8); fill-rule: nonzero; opacity: 1;" vector-effect="non-scaling-stroke"  x="-18.993" y="-18.023" rx="7.677" ry="7.677" width="37.986" height="36.046" />
</g>
		<g transform="matrix(1 0 0 1 -0.38 2.99)"  >
<path style="stroke: none; stroke-width: 1; stroke-dasharray: none; stroke-linecap: butt; stroke-dashoffset: 0; stroke-linejoin: miter; stroke-miterlimit: 4; fill: rgb(122,129,249); fill-rule: nonzero; opacity: 1;" vector-effect="non-scaling-stroke"  transform=" translate(-27.62, -31.99)" d="M 19.902 34.209 L 35.335 34.209 L 35.335 37.216 L 19.902 37.216 z M 19.902 26.757000000000005 L 35.335 26.757000000000005 L 35.335 29.764000000000006 L 19.902 29.764000000000006 z" stroke-linecap="round" />
</g>
		<g transform="matrix(1 0 0 1 -0.04 -2.94)"  >
<rect style="stroke: rgb(122,129,249); stroke-width: 1; stroke-dasharray: none; stroke-linecap: butt; stroke-dashoffset: 0; stroke-linejoin: miter; stroke-miterlimit: 4; fill: none; fill-rule: nonzero; opacity: 1;" vector-effect="non-scaling-stroke"  x="-18.493" y="-13.0855" rx="7.177" ry="7.177" width="36.986" height="26.171" />
</g>
		<g transform="matrix(1 0 0 1 -0.04 -7.81)"  >
<rect style="stroke: rgb(122,129,249); stroke-width: 1; stroke-dasharray: none; stroke-linecap: butt; stroke-dashoffset: 0; stroke-linejoin: miter; stroke-miterlimit: 4; fill: none; fill-rule: nonzero; opacity: 1;" vector-effect="non-scaling-stroke"  x="-18.493" y="-10.4265" rx="7.177" ry="7.177" width="36.986" height="20.853" />
</g>
		<g transform="matrix(1 0 0 1 -0.04 -16.26)"  >
<rect style="stroke: none; stroke-width: 1; stroke-dasharray: none; stroke-linecap: butt; stroke-dashoffset: 0; stroke-linejoin: miter; stroke-miterlimit: 4; fill: rgb(122,129,249); fill-rule: nonzero; opacity: 1;" vector-effect="non-scaling-stroke"  x="-18.9925" y="-12.086" rx="7.677" ry="7.677" width="37.985" height="24.172" />
</g>
		<g transform="matrix(1 0 0 1 -0.04 -16.26)"  >
<rect style="stroke: none; stroke-width: 1; stroke-dasharray: none; stroke-linecap: butt; stroke-dashoffset: 0; stroke-linejoin: miter; stroke-miterlimit: 4; fill: rgb(158,164,255); fill-rule: nonzero; opacity: 1;" vector-effect="non-scaling-stroke"  x="-14.278" y="-8.125" rx="5" ry="5" width="28.556" height="16.25" />
</g>
		<g transform="matrix(1 0 0 1 0.11 15.3)"  >
<path style="stroke: none; stroke-width: 1; stroke-dasharray: none; stroke-linecap: butt; stroke-dashoffset: 0; stroke-linejoin: miter; stroke-miterlimit: 4; fill: rgb(215,215,239); fill-rule: nonzero; opacity: 1;" vector-effect="non-scaling-stroke"  transform=" translate(-28.11, -44.3)" d="M 23.82 43.284 C 23.82 42.17943050033841 24.715430500338414 41.284 25.82 41.284 L 30.404 41.284 C 31.508569499661586 41.284 32.403999999999996 42.17943050033841 32.403999999999996 43.284 L 32.403999999999996 47.314 L 23.82 47.314 L 23.82 43.284 Z" stroke-linecap="round" />
</g>
		<g transform="matrix(1 0 0 1 0.11 15.83)"  >
<path style="stroke: none; stroke-width: 1; stroke-dasharray: none; stroke-linecap: butt; stroke-dashoffset: 0; stroke-linejoin: miter; stroke-miterlimit: 4; fill: rgb(59,59,129); fill-rule: nonzero; opacity: 1;" vector-effect="non-scaling-stroke"  transform=" translate(-28.11, -44.83)" d="M 24.916 44.343 C 24.916 43.23843050033842 25.811430500338414 42.343 26.916 42.343 L 29.308 42.343 C 30.412569499661586 42.343 31.308 43.23843050033842 31.308 44.343 L 31.308 47.313 L 24.916 47.313 L 24.916 44.343 Z" stroke-linecap="round" />
</g>
</g>
</g>
</svg>